<?xml version="1.0" ?><!DOCTYPE svg  PUBLIC '-//W3C//DTD SVG 1.1//EN'  'http://www.w3.org/Graphics/SVG/1.1/DTD/svg11.dtd'><svg height="43.3492mm" style="shape-rendering:geometricPrecision; text-rendering:geometricPrecision; image-rendering:optimizeQuality; fill-rule:evenodd; clip-rule:evenodd" version="1.1" viewBox="0 0 4335 4335" width="43.3492mm" xml:space="preserve" xmlns="http://www.w3.org/2000/svg" xmlns:xlink="http://www.w3.org/1999/xlink"><defs><style type="text/css">
   <![CDATA[
    .fil1 {fill:#BCBCBC;fill-rule:nonzero}
    .fil0 {fill:url(#id0)}
    .fil2 {fill:url(#id1);fill-rule:nonzero}
   ]]>
  </style><linearGradient gradientUnits="userSpaceOnUse" id="id0" x1="2170.9" x2="2170.9" y1="4.27" y2="4339.19"><stop offset="0" style="stop-color:#E12A18"/><stop offset="1" style="stop-color:#CD0017"/></linearGradient><linearGradient gradientUnits="userSpaceOnUse" id="id1" x1="1911.69" x2="1911.69" y1="723.3" y2="3536.4"><stop offset="0" style="stop-color:#FDFDFD"/><stop offset="1" style="stop-color:#F7F7F8"/></linearGradient></defs><g id="Warstwa_x0020_1"><rect class="fil0" height="4335" id="Prostokąt_x0020_3" width="4335" x="3" y="4"/><path class="fil1" d="M2167 765c-1551,0 -1943,2156 -513,2716 -12,-111 -23,-282 5,-403 26,-110 165,-699 165,-699 0,0 -42,-84 -42,-209 0,-196 113,-342 255,-342 120,0 178,90 178,198 0,121 -77,301 -117,468 -33,140 70,254 208,254 250,0 442,-264 442,-644 0,-337 -242,-572 -588,-572 -400,0 -635,300 -635,610 0,121 47,251 105,321 11,14 13,26 10,40 -11,44 -34,140 -39,160 -6,26 -20,31 -47,19 -176,-82 -286,-339 -286,-545 0,-444 322,-851 929,-851 488,0 867,348 867,812 0,485 -306,875 -730,875 -143,0 -277,-74 -322,-161 0,0 -71,269 -88,334 -32,122 -117,275 -175,369 132,41 271,63 416,63 777,0 1407,-630 1407,-1407 0,-777 -630,-1407 -1407,-1407z"/><path class="fil2" d="M2180 723c-1551,0 -1943,2156 -513,2716 -12,-111 -23,-282 5,-403 26,-110 165,-699 165,-699 0,0 -42,-84 -42,-209 0,-196 113,-342 255,-342 120,0 178,90 178,198 0,121 -77,301 -116,468 -33,140 70,254 208,254 250,0 442,-264 442,-644 0,-337 -242,-572 -588,-572 -400,0 -635,300 -635,610 0,121 47,251 105,321 11,14 13,26 10,40 -11,44 -34,140 -39,160 -6,26 -20,31 -47,19 -176,-82 -286,-339 -286,-545 0,-444 322,-851 929,-851 488,0 867,348 867,812 0,485 -306,875 -730,875 -143,0 -277,-74 -322,-161 0,0 -71,269 -88,334 -32,122 -117,275 -175,369 132,41 271,63 416,63 777,0 1407,-630 1407,-1407 0,-777 -630,-1407 -1407,-1407z"/></g></svg>